<svg version="1.1" id="Layer_1" xmlns="http://www.w3.org/2000/svg" xmlns:xlink="http://www.w3.org/1999/xlink" x="0px" y="0px"
	 width="100%" viewBox="0 0 512 512" enable-background="new 0 0 512 512" xml:space="preserve">
<path fill="#16A34A" opacity="1.000000" stroke="none" 
	d="
M195.930786,352.638458 
	C196.112717,351.466736 196.173615,350.130371 196.795151,349.775299 
	C210.232727,342.098480 223.734116,334.533417 237.220566,326.942078 
	C247.098297,321.382050 256.972229,315.815277 267.081970,310.119598 
	C257.668488,291.565613 254.658295,271.827484 256.083466,251.398041 
	C256.912994,239.506836 259.971069,228.027420 265.034241,217.199783 
	C266.634430,213.777756 266.276428,212.025436 262.876404,209.848419 
	C243.306290,197.317825 223.926285,184.489960 204.508270,171.722656 
	C202.335678,170.294189 200.329712,168.612289 199.052780,167.653412 
	C206.528397,156.072083 213.895432,144.658936 221.395996,133.038971 
	C241.659546,147.127731 262.936859,161.728409 283.951324,176.698090 
	C288.060730,179.625427 290.875519,180.247482 294.813568,176.693359 
	C311.184143,161.918747 330.684753,153.531479 352.275818,150.197876 
	C372.802155,147.028656 392.658813,149.934158 411.926392,157.886551 
	C426.404572,163.862213 439.117279,172.356140 449.763123,183.623260 
	C466.622742,201.466736 477.043152,222.497406 480.109558,247.169479 
	C483.491791,274.383209 478.014160,299.517456 463.142975,322.352997 
	C445.316986,349.725830 420.076172,366.288330 387.786682,372.050262 
	C355.346954,377.839020 326.342957,369.758057 299.933502,350.790802 
	C299.663330,350.596771 299.371002,350.433899 299.096252,350.245880 
	C295.636719,347.877716 292.256561,343.790985 288.697571,343.629059 
	C285.257111,343.472504 281.632965,347.358948 278.089142,349.468903 
	C257.444458,361.760681 236.800323,374.053406 216.149872,386.335449 
	C215.746048,386.575623 215.267441,386.690033 214.262894,387.081879 
	C210.482132,374.409637 204.420242,363.037567 195.930786,352.638458 
z"/>
<path fill="#8fcffa" opacity="1.000000" stroke="none" 
	d="
M100.410263,332.746094 
	C108.988075,330.155945 117.394951,329.805450 126.018166,330.423737 
	C143.891602,331.705231 159.698212,338.065948 173.744766,348.973938 
	C189.644547,361.321106 199.572189,377.683472 203.841568,397.112488 
	C209.309158,421.994385 203.824631,444.909271 189.081329,465.608032 
	C175.176010,485.130432 156.156937,496.882355 132.729202,500.909332 
	C107.042679,505.324554 83.303177,499.749451 63.010548,483.197449 
	C46.182983,469.471710 35.941818,451.571106 32.949757,429.708801 
	C29.532562,404.740112 36.259514,382.547546 51.682243,363.178528 
	C62.127434,350.060638 75.709900,340.630096 91.754578,335.128479 
	C94.492378,334.189697 97.298630,333.450562 100.410263,332.746094 
z"/>
<path fill="#8fcffa" opacity="1.000000" stroke="none" 
	d="
M211.066025,78.939407 
	C215.625000,97.948776 213.801956,115.984482 205.858521,133.302536 
	C196.178909,154.405777 180.330368,169.284729 158.653564,177.435928 
	C137.251831,185.483673 115.761292,184.847305 94.527275,176.197037 
	C74.401054,167.998062 59.401363,154.066422 49.568970,134.893265 
	C42.221539,120.565788 38.568882,105.048286 40.150139,88.903931 
	C41.887386,71.166885 48.464405,55.289268 59.989216,41.350273 
	C73.607117,24.879734 91.297928,15.730408 111.788712,12.202646 
	C136.068542,8.022550 158.370667,14.185124 178.071136,28.753666 
	C194.979080,41.257141 206.002548,57.981064 211.066025,78.939407 
z"/>
</svg>